<?xml version="1.0" standalone="no"?>
<!DOCTYPE svg PUBLIC "-//W3C//DTD SVG 20010904//EN"
 "http://www.w3.org/TR/2001/REC-SVG-20010904/DTD/svg10.dtd">
<svg version="1.0" xmlns="http://www.w3.org/2000/svg"
 width="512.000000pt" height="512.000000pt" viewBox="0 0 512.000000 512.000000"
 preserveAspectRatio="xMidYMid meet">
<metadata>
Created by potrace 1.11, written by Peter Selinger 2001-2013
</metadata>
<g transform="translate(0.000000,512.000000) scale(0.100000,-0.100000)"
fill="#000000" stroke="none">
<path d="M1022 3944 c-29 -14 -64 -40 -77 -58 -58 -76 -55 -7 -55 -1216 l0
-1110 1660 0 1660 0 -2 1118 -3 1117 -22 40 c-28 52 -68 89 -123 114 -45 20
-58 21 -1516 21 l-1470 0 -52 -26z m2818 -1194 l0 -860 -1297 2 -1298 3 -3
845 c-1 465 0 851 3 858 3 9 273 12 1300 12 l1295 0 0 -860z"/>
<path d="M1967 3223 c-4 -3 -7 -185 -7 -404 l0 -397 53 -7 c157 -21 352 -77
470 -136 l57 -29 0 433 0 434 -72 21 c-179 53 -482 104 -501 85z"/>
<path d="M3040 3219 c-116 -14 -234 -37 -357 -71 l-113 -30 0 -429 c0 -247 4
-429 9 -429 5 0 49 16 99 35 111 42 213 71 357 100 l110 21 3 407 c2 383 1
407 -15 406 -10 -1 -52 -5 -93 -10z"/>
<path d="M1860 2762 l0 -419 101 -7 c96 -6 341 -49 459 -81 30 -8 56 -13 57
-11 6 5 -184 73 -278 100 -47 13 -123 30 -168 36 -63 10 -85 17 -96 33 -13 18
-15 82 -15 394 l0 373 -30 0 -30 0 0 -418z"/>
<path d="M3190 2802 c0 -364 -1 -380 -20 -397 -12 -11 -60 -25 -124 -36 -129
-23 -316 -79 -399 -119 -34 -17 -53 -28 -42 -24 198 59 482 114 594 114 l61 0
0 420 0 420 -35 0 -35 0 0 -378z"/>
<path d="M642 1388 c5 -113 32 -173 107 -240 94 -85 -59 -79 1831 -76 l1675 3
53 29 c105 59 159 151 169 290 l6 86 -1923 0 -1922 0 4 -92z m2190 -85 c22
-19 23 -52 4 -79 -13 -18 -30 -19 -270 -22 l-256 -3 -26 26 c-19 19 -23 31
-18 48 14 47 12 47 287 47 228 0 263 -2 279 -17z"/>
</g>
</svg>
